<?xml version="1.0" encoding="utf-8"?>
<?xml-stylesheet type="text/css" href="../styles.css" ?>
<svg version="1.1" id="XMLID_1_" xmlns="http://www.w3.org/2000/svg" xmlns:xlink="http://www.w3.org/1999/xlink" x="0px" y="0px" viewBox="0 0 111.2559 30.9834" enable-background="new 0 0 111.2559 30.9834" xml:space="preserve">
<g class="svg-icon svg-icon-powered-by">
  <g id="svg-icon-powered-by-logo">
    <circle cx="109.2735" cy="11.2895" r="1.9834"/>
    <polygon points="19.6739,14.6846 3.6329,14.6846 3.6329,18.3838 11.3516,18.3838 0,30.9653 18.2227,30.9653 
      18.2227,27.2666 8.3204,27.2666    "/>
    <polygon points="90.5371,14.6846 90.5371,18.3838 98.2559,18.3838 86.9024,30.9653 105.127,30.9653 
      105.127,27.2666 95.2246,27.2666 106.5782,14.6846    "/>
    <rect x="107.4239" y="14.6455" width="3.6992" height="16.3223"/>
    <path d="M78.6426,24.6846h12.1973V22.833c0-4.4927-3.6563-8.1484-8.1504-8.1484s-8.1504,3.6557-8.1504,8.1484
      c0,4.4941,3.6563,8.1504,8.1504,8.1504l3.4434-3.7031l-3.4434,0.0039C80.8965,27.2842,79.3457,26.2153,78.6426,24.6846z
       M82.6895,18.3838c1.7949,0,3.3437,1.0664,4.0469,2.5996h-8.0938C79.3457,19.4502,80.8965,18.3838,82.6895,18.3838z"/>
    <path d="M50.3145,14.6182c-1.7559,0-3.3457,0.7168-4.4961,1.8715c-1.1504-1.1547-2.7422-1.8715-4.4961-1.8715
      c-3.5,0-6.3477,2.8652-6.3477,6.3881V30.96h3.7012v-9.9537c0-1.4814,1.1856-2.6889,2.6465-2.6889
      c1.4531,0,2.6367,1.1777,2.6445,2.6308h-0.0019V30.96h3.7031V20.9541c0.0059-1.4551,1.1914-2.6367,2.6465-2.6367
      c1.4609,0,2.6465,1.188,2.6465,2.6465V30.96h3.7011v-9.9961C56.6621,17.4639,53.8145,14.6182,50.3145,14.6182z"/>
    <path d="M25.9278,14.6533c-4.5098,0-8.1641,3.6563-8.1641,8.1641c0,4.5117,3.6543,8.166,8.1641,8.166
      c1.6465,0,3.1797-0.4883,4.4609-1.3276v1.2905h3.7051v-8.1289h-0.002C34.0918,18.3096,30.4375,14.6533,25.9278,14.6533z
       M25.9278,27.2803c-2.4629,0-4.461-1.9981-4.461-4.4629c0-2.4624,1.9981-4.4605,4.461-4.4605
      c2.4648,0,4.4609,1.9981,4.4609,4.4605C30.3887,25.2822,28.3926,27.2803,25.9278,27.2803z"/>
    <path d="M65.6075,14.6533c-1.6465,0-3.1778,0.4902-4.461,1.3281V9.2998h-3.7031v13.5176l0,0
      c0,4.5117,3.6543,8.166,8.1641,8.166c4.5097,0,8.166-3.6543,8.166-8.166C73.7735,18.3096,70.1172,14.6533,65.6075,14.6533z
       M65.6075,27.2803c-2.4629,0-4.461-1.9981-4.461-4.4629c0-2.4624,1.9981-4.4605,4.461-4.4605
      c2.4648,0,4.4609,1.9981,4.4609,4.4605C70.0684,25.2822,68.0723,27.2803,65.6075,27.2803z"/>
  </g>
  <text id="svg-icon-powered-by-text" transform="matrix(1 0 0 1 2 8.2998)" font-family="'SourceSansPro-Regular'" font-size="10px">Powered by</text>
</g>
</svg>
