<?xml version="1.0" encoding="utf-8"?>
<?xml-stylesheet type="text/css" href="../styles.css" ?>
<svg version="1.1" xmlns="http://www.w3.org/2000/svg">
<path class="svg-icon svg-icon-edit" d="M15.6177,8.8496c0-1.2178,0.9082-2.2129,2.082-2.3711
	c-0.2094-0.7837-0.5171-1.5254-0.9145-2.2114c-0.9419,0.7192-2.2891,0.6577-3.1494-0.2032
	c-0.8614-0.8613-0.9229-2.2075-0.2032-3.1494C12.7461,0.5171,12.0049,0.2094,11.2207,0c-0.1582,1.1738-1.1533,2.082-2.3706,2.082
	S6.6377,1.1738,6.4795,0C5.6953,0.2094,4.9541,0.5171,4.2681,0.914C4.9873,1.8559,4.9258,3.2026,4.065,4.0639
	C3.2041,4.9248,1.857,4.9863,0.9151,4.2671C0.5176,4.9531,0.21,5.6948,0.0005,6.4785C1.1738,6.6362,2.083,7.6318,2.083,8.8491
	C2.0825,10.0664,1.1738,11.0615,0,11.2202c0.21,0.7837,0.5176,1.5254,0.9151,2.2119c0.9414-0.7197,2.2885-0.6592,3.1499,0.2021
	c0.8608,0.8614,0.9223,2.2085,0.2026,3.1504c0.6865,0.3975,1.4277,0.7051,2.2114,0.9146c0.1587-1.1738,1.1538-2.0825,2.3711-2.0825
	s2.2124,0.9087,2.3711,2.0825c0.7837-0.2095,1.5249-0.5171,2.2109-0.9141c-0.7192-0.9424-0.6577-2.2895,0.2032-3.1504
	c0.8608-0.8608,2.2085-0.9223,3.1504-0.2031c0.3969-0.686,0.7046-1.4277,0.9145-2.2114
	C16.5264,11.0615,15.6172,10.0664,15.6177,8.8496z M8.8501,12.9931c-2.2886,0-4.1435-1.8549-4.1435-4.1435
	S6.5615,4.706,8.8501,4.706s4.1436,1.855,4.1436,4.1436S11.1387,12.9931,8.8501,12.9931z"/>
</svg>
